<svg height="512" viewBox="0 0 512 512" width="512" xmlns="http://www.w3.org/2000/svg"><path d="m312 312h96v56h-96z" fill="#6cbbc7"/><path d="m488 152a128.005 128.005 0 0 0 -134.271-127.85c-66.065 3.152-119.9 58.2-121.681 124.313a127.557 127.557 0 0 0 44.452 100.467c21.856 18.816 35.5 45.391 35.5 74.23v4.84h96v-4.858c0-27.882 11.91-54.716 33.42-72.456a127.579 127.579 0 0 0 46.58-98.686z" fill="#fdb62f"/><path d="m288 136 3.348-2.232a21.912 21.912 0 1 1 0 36.463l-3.348-2.231v48h48l-2.231 3.347a21.911 21.911 0 1 0 36.462 0l-2.231-3.347h48v-128h-128z" fill="#f29706"/><path d="m328 384v8l8.845 17.689a25.888 25.888 0 0 0 46.31 0l8.845-17.689v-8z" fill="#999"/><path d="m24 488v-128h48l-2.232-3.348a21.91 21.91 0 0 1 8.432-31.752 21.907 21.907 0 0 1 19.6 0 21.91 21.91 0 0 1 8.433 31.752l-2.233 3.348h48v48l3.348-2.232a21.91 21.91 0 0 1 31.752 8.432 21.907 21.907 0 0 1 0 19.6 21.91 21.91 0 0 1 -31.752 8.433l-3.348-2.233v48z" fill="#fdb62f"/><path d="m152 360h-48l2.232-3.348a21.91 21.91 0 0 0 -8.432-31.752 21.907 21.907 0 0 0 -19.6 0 21.91 21.91 0 0 0 -8.433 31.752l2.233 3.348h-48v-128h128v48l3.348-2.232a21.91 21.91 0 0 1 31.752 8.432 21.907 21.907 0 0 1 0 19.6 21.91 21.91 0 0 1 -31.752 8.433l-3.348-2.233z" fill="#0071bc"/><path d="m152 488v-48l3.348 2.232a21.91 21.91 0 0 0 31.752-8.432 21.907 21.907 0 0 0 0-19.6 21.91 21.91 0 0 0 -31.752-8.433l-3.348 2.233v-48h48l-2.232 3.348a21.91 21.91 0 0 0 8.432 31.752 21.907 21.907 0 0 0 19.6 0 21.91 21.91 0 0 0 8.433-31.752l-2.233-3.348h48v128z" fill="#39b54a"/><path d="m424 208h-48l2.232 3.348a21.91 21.91 0 0 1 -8.432 31.752 21.907 21.907 0 0 1 -19.6 0 21.91 21.91 0 0 1 -8.433-31.752l2.233-3.348h-48v-48l3.348 2.232a21.91 21.91 0 0 0 31.752-8.432 21.907 21.907 0 0 0 0-19.6 21.91 21.91 0 0 0 -31.752-8.433l-3.348 2.233v-48h128z" fill="#ff421d"/><path d="m312 360v16a16 16 0 0 0 16 16h64a16 16 0 0 0 16-16v-16z" fill="#0071bc"/><path d="m310.523 307.672a90.975 90.975 0 0 1 1.477 15.488v4.84h96v-4.858c0-27.882 11.91-54.716 33.42-72.456a127.579 127.579 0 0 0 46.58-98.686c0-1.21-.153-2.38-.186-3.582a401.539 401.539 0 0 1 -177.291 159.254z" fill="#f29706"/></svg>